<svg width="25" height="27" viewBox="0 0 25 27" fill="none" xmlns="http://www.w3.org/2000/svg">
<path d="M5.81062 3.47657C6.01562 3.47557 6.21362 3.40157 6.36862 3.26757C6.52462 3.13257 6.62662 2.94757 6.65662 2.74457C6.74962 2.87757 6.87462 2.98457 7.02162 3.05557C7.16762 3.12557 7.32962 3.15757 7.49262 3.14657C7.65462 3.13557 7.81062 3.08357 7.94662 2.99357C8.08262 2.90457 8.19262 2.78157 8.26762 2.63657C8.35762 2.75857 8.47462 2.85757 8.60762 2.92857C8.74162 2.99957 8.88962 3.03957 9.04062 3.04757C9.19162 3.05457 9.34262 3.02757 9.48262 2.96957C9.62162 2.91157 9.74762 2.82357 9.84862 2.71057C10.0186 2.95157 10.2766 3.11457 10.5666 3.16557C10.8556 3.21657 11.1536 3.15057 11.3956 2.98257C11.4356 3.04857 11.4846 3.11057 11.5386 3.16757C11.2636 3.19657 11.0066 3.31457 10.8056 3.50457C10.6816 3.39157 10.5356 3.30557 10.3756 3.25357C10.2166 3.20057 10.0476 3.18157 9.88062 3.19857C9.71362 3.21557 9.55162 3.26757 9.40662 3.35157C9.26062 3.43557 9.13462 3.54857 9.03562 3.68457C8.83762 3.52857 8.59262 3.44357 8.34062 3.44357C8.12562 3.44457 7.91462 3.50557 7.73362 3.62157C7.55262 3.73757 7.40762 3.90257 7.31762 4.09757C7.17462 4.00057 7.00962 3.93957 6.83762 3.91957C6.66662 3.90057 6.49262 3.92357 6.33062 3.98657C6.16962 4.04957 6.02662 4.15157 5.91362 4.28257C5.80062 4.41357 5.72162 4.56957 5.68362 4.73857C5.52762 4.64257 5.34862 4.59057 5.16562 4.59057C5.03462 4.59057 4.90462 4.61557 4.78362 4.66557C4.66262 4.71557 4.55162 4.78957 4.45962 4.88157C4.36662 4.97457 4.29262 5.08457 4.24262 5.20557C4.19262 5.32657 4.16662 5.45657 4.16662 5.58757V5.59157C4.02562 5.50957 3.86462 5.46657 3.70162 5.46657C3.53862 5.46657 3.37762 5.50957 3.23662 5.59157C3.09562 5.67357 2.97762 5.79057 2.89662 5.93257C2.81462 6.07357 2.77162 6.23457 2.77262 6.39757C2.77262 6.48557 2.78462 6.57257 2.80962 6.65657C2.67462 6.57257 2.51862 6.52757 2.35962 6.52757C2.18862 6.52657 2.02162 6.57757 1.87962 6.67257C1.73662 6.76757 1.62562 6.90257 1.56062 7.06057C1.49462 7.21857 1.47762 7.39157 1.51062 7.55957C1.54362 7.72757 1.62662 7.88157 1.74662 8.00257C1.86762 8.12357 2.02162 8.20657 2.18962 8.23957C2.35662 8.27357 2.53062 8.25657 2.68862 8.19157C2.84662 8.12557 2.98162 8.01457 3.07662 7.87257C3.17162 7.73057 3.22262 7.56357 3.22262 7.39257C3.22162 7.32057 3.21262 7.24757 3.19362 7.17757C3.33162 7.26857 3.49162 7.31957 3.65562 7.32857C3.82062 7.33657 3.98462 7.30057 4.13062 7.22457C4.27662 7.14857 4.40062 7.03457 4.48862 6.89557C4.57662 6.75657 4.62562 6.59557 4.63162 6.43057C4.79062 6.53257 4.97562 6.58657 5.16462 6.58657C5.18162 6.58657 5.20162 6.58457 5.21862 6.58457C5.00362 6.78057 4.87162 7.05157 4.84962 7.34157C4.78262 7.32857 4.71462 7.32257 4.64662 7.32257C4.50262 7.32257 4.36062 7.35057 4.22762 7.40557C4.09462 7.46057 3.97462 7.54157 3.87262 7.64357C3.77162 7.74457 3.69062 7.86557 3.63562 7.99857C3.58062 8.13157 3.55262 8.27357 3.55262 8.41757C3.55262 8.45957 3.55462 8.50257 3.56162 8.54557C3.52162 8.53957 3.48162 8.53757 3.44162 8.53757C3.16662 8.53757 2.90362 8.64657 2.70862 8.84157C2.51462 9.03557 2.40562 9.29957 2.40562 9.57357C2.40562 9.68657 2.42362 9.79757 2.45962 9.90357C2.43862 9.90357 2.41862 9.90057 2.39862 9.90057C2.22462 9.90057 2.05362 9.94657 1.90262 10.0346C1.75262 10.1226 1.62862 10.2496 1.54362 10.4016C1.45862 10.5536 1.41562 10.7256 1.41962 10.8996C1.42362 11.0736 1.47362 11.2436 1.56462 11.3916C1.55562 11.3916 1.54662 11.3916 1.53662 11.3916C1.35162 11.3916 1.17162 11.4466 1.01862 11.5506C0.865624 11.6546 0.746624 11.8026 0.679624 11.9746C0.611624 12.1466 0.596624 12.3346 0.637624 12.5156C0.678624 12.6956 0.772624 12.8596 0.908624 12.9856C0.894624 12.9856 0.881624 12.9816 0.869624 12.9816C0.668624 12.9816 0.473624 13.0506 0.317624 13.1776C0.162624 13.3056 0.055624 13.4826 0.016624 13.6796C-0.022376 13.8766 0.00762402 14.0816 0.102624 14.2586C0.197624 14.4356 0.350624 14.5746 0.536624 14.6516C0.722624 14.7276 0.929624 14.7376 1.12162 14.6786C1.31362 14.6196 1.47862 14.4956 1.58962 14.3276C1.70062 14.1606 1.74962 13.9596 1.72862 13.7596C1.70862 13.5596 1.61862 13.3726 1.47562 13.2316C1.49562 13.2316 1.51562 13.2346 1.53662 13.2346C1.66262 13.2346 1.78862 13.2076 1.90462 13.1566C2.02062 13.1066 2.12462 13.0316 2.21062 12.9386C2.21062 12.9486 2.21062 12.9596 2.21062 12.9696C2.21062 13.1986 2.28362 13.4206 2.41962 13.6046C2.25162 13.6646 2.10262 13.7676 1.98762 13.9036C1.87162 14.0396 1.79362 14.2036 1.76162 14.3786C1.72962 14.5536 1.74462 14.7346 1.80362 14.9026C1.86362 15.0706 1.96662 15.2196 2.10162 15.3346C1.93762 15.4096 1.79762 15.5296 1.69862 15.6806C1.59862 15.8306 1.54262 16.0066 1.53862 16.1876C1.53362 16.3676 1.57962 16.5466 1.67062 16.7026C1.76162 16.8576 1.89562 16.9846 2.05462 17.0686C1.88762 17.1536 1.75062 17.2886 1.66162 17.4546C1.57362 17.6206 1.53862 17.8096 1.56162 17.9966C1.58462 18.1826 1.66462 18.3576 1.79062 18.4976C1.91662 18.6366 2.08162 18.7346 2.26562 18.7766C2.09162 18.8636 1.95262 19.0066 1.87062 19.1836C1.78862 19.3596 1.76862 19.5586 1.81362 19.7476C1.85862 19.9366 1.96662 20.1046 2.11962 20.2246C2.27162 20.3446 2.46062 20.4106 2.65462 20.4096C2.70762 20.4096 2.76062 20.4046 2.81362 20.3936C2.62062 20.4576 2.46062 20.5916 2.36262 20.7696C2.26462 20.9466 2.23762 21.1546 2.28662 21.3506C2.33562 21.5476 2.45662 21.7186 2.62662 21.8296C2.79562 21.9406 3.00062 21.9836 3.20062 21.9506C3.39962 21.9166 3.57962 21.8086 3.70362 21.6486C3.82662 21.4886 3.88562 21.2876 3.86762 21.0856C3.84962 20.8836 3.75662 20.6956 3.60662 20.5606C3.45562 20.4246 3.26062 20.3506 3.05762 20.3526C3.00762 20.3526 2.95862 20.3576 2.90962 20.3666C3.08562 20.3136 3.24062 20.2046 3.35062 20.0566C3.46062 19.9086 3.51962 19.7296 3.51962 19.5456C3.51962 19.5236 3.51562 19.5046 3.51362 19.4826C3.64862 19.6326 3.82662 19.7366 4.02362 19.7816C3.90562 19.9206 3.82862 20.0906 3.80462 20.2716C3.77962 20.4526 3.80662 20.6366 3.88362 20.8026C3.96062 20.9686 4.08362 21.1086 4.23762 21.2066C4.39162 21.3046 4.57062 21.3566 4.75262 21.3556H4.77362C4.67562 21.4916 4.61662 21.6526 4.60362 21.8196C4.59062 21.9866 4.62462 22.1546 4.70062 22.3036C4.77662 22.4526 4.89262 22.5786 5.03562 22.6656C5.17862 22.7536 5.34362 22.7996 5.51062 22.7996C5.60062 22.7996 5.68962 22.7866 5.77562 22.7626C5.68862 22.8926 5.63962 23.0436 5.63262 23.2006C5.62462 23.3566 5.66062 23.5116 5.73462 23.6496C5.80862 23.7876 5.91762 23.9026 6.05262 23.9836C6.18662 24.0636 6.33962 24.1056 6.49562 24.1066C6.69162 24.1056 6.88162 24.0376 7.03362 23.9136C6.93062 24.0336 6.86362 24.1816 6.84262 24.3386C6.82162 24.4966 6.84662 24.6566 6.91462 24.7996C6.98262 24.9426 7.09062 25.0636 7.22562 25.1466C7.36162 25.2296 7.51762 25.2716 7.67662 25.2676C7.83462 25.2636 7.98862 25.2126 8.11962 25.1226C8.24962 25.0326 8.35162 24.9066 8.41162 24.7596C8.47262 24.6126 8.48862 24.4516 8.45962 24.2956C8.42962 24.1396 8.35562 23.9956 8.24562 23.8816C8.35362 23.8796 8.45962 23.8606 8.56162 23.8266V23.8386C8.56162 24.0226 8.61262 24.2036 8.70862 24.3616C8.80562 24.5186 8.94262 24.6466 9.10762 24.7306C9.05762 24.7206 9.00762 24.7146 8.95762 24.7146C8.76562 24.7126 8.58062 24.7806 8.43562 24.9066C8.29162 25.0316 8.19762 25.2056 8.17262 25.3956C8.14762 25.5856 8.19262 25.7776 8.29862 25.9366C8.40562 26.0956 8.56662 26.2096 8.75262 26.2576C8.93762 26.3056 9.13362 26.2846 9.30462 26.1976C9.47462 26.1106 9.60762 25.9646 9.67862 25.7866C9.74862 25.6086 9.75062 25.4106 9.68562 25.2306C9.62062 25.0516 9.49162 24.9016 9.32362 24.8096C9.40162 24.8296 9.48262 24.8396 9.56362 24.8406C9.75062 24.8406 9.93362 24.7876 10.0926 24.6886C10.1076 24.8726 10.1756 25.0476 10.2876 25.1936C10.3996 25.3396 10.5516 25.4496 10.7256 25.5116C10.8986 25.5726 11.0866 25.5826 11.2656 25.5406C11.4446 25.4976 11.6076 25.4046 11.7346 25.2706C11.7646 25.4596 11.8536 25.6336 11.9876 25.7686C12.1216 25.9036 12.2946 25.9936 12.4826 26.0256C12.6706 26.0566 12.8636 26.0286 13.0346 25.9446C13.2056 25.8606 13.3456 25.7246 13.4356 25.5566C13.4766 25.7596 13.5886 25.9406 13.7506 26.0676C13.9136 26.1956 14.1166 26.2596 14.3226 26.2506C14.5296 26.2406 14.7256 26.1576 14.8756 26.0156C15.0256 25.8736 15.1196 25.6826 15.1416 25.4766C15.1526 25.6346 15.2096 25.7866 15.3046 25.9136C15.4006 26.0396 15.5306 26.1356 15.6796 26.1896C15.8286 26.2436 15.9906 26.2526 16.1446 26.2166C16.2996 26.1806 16.4396 26.0996 16.5486 25.9846C16.6586 25.8696 16.7326 25.7256 16.7616 25.5696C16.7906 25.4136 16.7736 25.2526 16.7126 25.1066C16.6516 24.9596 16.5496 24.8346 16.4186 24.7446C16.2876 24.6556 16.1336 24.6056 15.9746 24.6026C16.0496 24.5246 16.1116 24.4356 16.1596 24.3386C16.2896 24.4726 16.4536 24.5666 16.6346 24.6116C16.8146 24.6566 17.0036 24.6506 17.1816 24.5936C17.0276 24.6976 16.9166 24.8536 16.8676 25.0326C16.8196 25.2116 16.8366 25.4016 16.9166 25.5696C16.9966 25.7366 17.1346 25.8696 17.3036 25.9446C17.4736 26.0196 17.6646 26.0306 17.8426 25.9756C18.0196 25.9216 18.1716 25.8056 18.2706 25.6486C18.3696 25.4916 18.4086 25.3036 18.3816 25.1206C18.3536 24.9366 18.2616 24.7696 18.1206 24.6486C17.9806 24.5266 17.8016 24.4606 17.6156 24.4606C17.5406 24.4616 17.4656 24.4736 17.3936 24.4976C17.5086 24.4276 17.6076 24.3366 17.6866 24.2276C17.7646 24.1196 17.8216 23.9966 17.8516 23.8656C17.9906 23.9836 18.1606 24.0596 18.3416 24.0836C18.5226 24.1086 18.7066 24.0806 18.8716 24.0036C19.0376 23.9266 19.1776 23.8046 19.2756 23.6506C19.3746 23.4966 19.4266 23.3186 19.4266 23.1356C19.4266 23.1286 19.4246 23.1206 19.4246 23.1156C19.5796 23.2286 19.7656 23.2886 19.9576 23.2886C20.0766 23.2886 20.1956 23.2656 20.3066 23.2196C20.4166 23.1736 20.5176 23.1066 20.6016 23.0226C20.6866 22.9376 20.7536 22.8376 20.7996 22.7266C20.8456 22.6156 20.8696 22.4976 20.8696 22.3776C20.8696 22.2876 20.8566 22.1986 20.8296 22.1136C21.0016 22.2276 21.2076 22.2766 21.4126 22.2516C21.6166 22.2276 21.8056 22.1306 21.9446 21.9786C22.0836 21.8266 22.1646 21.6296 22.1706 21.4236C22.1776 21.2176 22.1106 21.0156 21.9816 20.8546C22.1286 20.9846 22.3186 21.0566 22.5136 21.0556C22.7316 21.0556 22.9396 20.9696 23.0936 20.8156C23.2476 20.6616 23.3336 20.4536 23.3336 20.2356C23.3336 20.0176 23.2476 19.8096 23.0936 19.6556C22.9396 19.5016 22.7316 19.4156 22.5136 19.4156C22.3026 19.4146 22.0996 19.4976 21.9486 19.6446C21.9466 19.5366 21.9286 19.4296 21.8946 19.3276H21.9046C22.0896 19.3266 22.2706 19.2756 22.4276 19.1786C22.5856 19.0816 22.7126 18.9436 22.7966 18.7786C22.7866 18.8276 22.7816 18.8766 22.7806 18.9266C22.7786 19.1186 22.8456 19.3046 22.9706 19.4496C23.0956 19.5956 23.2696 19.6896 23.4596 19.7156C23.6496 19.7416 23.8426 19.6966 24.0016 19.5906C24.1616 19.4836 24.2756 19.3226 24.3246 19.1376C24.3736 18.9516 24.3526 18.7546 24.2666 18.5836C24.1796 18.4126 24.0336 18.2786 23.8556 18.2076C23.6776 18.1376 23.4796 18.1336 23.2996 18.1986C23.1196 18.2636 22.9696 18.3926 22.8776 18.5606C22.8976 18.4826 22.9076 18.4016 22.9076 18.3206C22.9076 18.1336 22.8546 17.9496 22.7556 17.7906C22.9386 17.7756 23.1136 17.7076 23.2586 17.5956C23.4046 17.4836 23.5146 17.3316 23.5766 17.1576C23.6376 16.9846 23.6486 16.7976 23.6056 16.6186C23.5636 16.4396 23.4706 16.2766 23.3386 16.1486C23.5266 16.1186 23.7006 16.0306 23.8356 15.8956C23.9706 15.7616 24.0596 15.5886 24.0916 15.4006C24.1226 15.2126 24.0946 15.0196 24.0106 14.8486C23.9266 14.6776 23.7916 14.5366 23.6236 14.4466C23.8266 14.4066 24.0076 14.2946 24.1346 14.1316C24.2616 13.9686 24.3256 13.7656 24.3166 13.5596C24.3066 13.3536 24.2226 13.1576 24.0816 13.0076C23.9396 12.8576 23.7486 12.7626 23.5436 12.7416C23.7556 12.7286 23.9546 12.6336 24.0986 12.4776C24.2426 12.3216 24.3216 12.1156 24.3176 11.9026C24.3136 11.6896 24.2286 11.4866 24.0786 11.3356C23.9296 11.1846 23.7276 11.0966 23.5146 11.0916C23.3026 11.0856 23.0956 11.1616 22.9376 11.3046C22.7806 11.4476 22.6836 11.6456 22.6686 11.8576C22.6526 12.0696 22.7196 12.2796 22.8556 12.4436C22.9906 12.6076 23.1846 12.7126 23.3956 12.7376C23.2086 12.7486 23.0306 12.8206 22.8886 12.9416C22.7466 13.0636 22.6476 13.2276 22.6066 13.4106C22.5666 13.5926 22.5866 13.7836 22.6646 13.9536C22.7416 14.1236 22.8726 14.2646 23.0376 14.3536C22.8736 14.3816 22.7206 14.4546 22.5946 14.5646C22.4696 14.6736 22.3766 14.8156 22.3256 14.9746C22.2756 15.1336 22.2696 15.3026 22.3096 15.4646C22.3486 15.6266 22.4316 15.7746 22.5496 15.8926C22.3936 15.9136 22.2446 15.9726 22.1176 16.0646C21.9896 16.1576 21.8876 16.2796 21.8186 16.4216C21.7496 16.5626 21.7166 16.7186 21.7226 16.8766C21.7286 17.0336 21.7736 17.1866 21.8536 17.3226C21.5976 17.3366 21.3566 17.4476 21.1796 17.6336C21.0036 17.8186 20.9046 18.0656 20.9046 18.3216C20.9046 18.4206 20.9196 18.5186 20.9496 18.6126C20.9336 18.6106 20.9186 18.6096 20.9036 18.6086C20.6256 18.6086 20.3586 18.7196 20.1626 18.9166C19.9656 19.1126 19.8556 19.3796 19.8556 19.6576C19.8556 19.6826 19.8566 19.7066 19.8596 19.7316C19.8056 19.7226 19.7506 19.7176 19.6946 19.7176C19.4326 19.7176 19.1786 19.8126 18.9796 19.9846C18.7816 20.1566 18.6516 20.3946 18.6146 20.6546C18.5166 20.6286 18.4166 20.6146 18.3156 20.6146C18.0996 20.6146 17.8876 20.6776 17.7046 20.7946C17.5226 20.9116 17.3776 21.0786 17.2866 21.2756C17.1676 21.1786 17.0276 21.1106 16.8786 21.0776C16.7286 21.0436 16.5736 21.0446 16.4246 21.0796C16.2756 21.1156 16.1366 21.1856 16.0196 21.2836C15.9016 21.3816 15.8076 21.5056 15.7456 21.6456C15.6376 21.5276 15.5026 21.4366 15.3526 21.3806C15.2026 21.3256 15.0406 21.3066 14.8816 21.3266C14.7226 21.3466 14.5706 21.4046 14.4386 21.4946C14.3066 21.5856 14.1986 21.7066 14.1226 21.8476C14.0326 21.7356 13.9206 21.6436 13.7926 21.5786C13.6646 21.5136 13.5246 21.4776 13.3816 21.4716C13.2376 21.4646 13.0946 21.4896 12.9616 21.5436C12.8286 21.5976 12.7096 21.6786 12.6106 21.7826C12.5496 21.6486 12.4586 21.5286 12.3466 21.4326C12.2336 21.3366 12.1016 21.2666 11.9586 21.2286C11.8156 21.1896 11.6666 21.1826 11.5206 21.2076C11.3746 21.2336 11.2366 21.2906 11.1156 21.3756C11.0826 21.2306 11.0176 21.0946 10.9256 20.9776C10.8336 20.8606 10.7166 20.7646 10.5836 20.6986C10.4506 20.6326 10.3036 20.5966 10.1546 20.5936C10.0066 20.5906 9.85862 20.6206 9.72262 20.6826C9.71862 20.5396 9.68362 20.3986 9.62162 20.2706C9.55862 20.1426 9.46862 20.0286 9.35862 19.9376C9.24862 19.8466 9.11962 19.7806 8.98162 19.7436C8.84362 19.7066 8.69962 19.6986 8.55862 19.7226C8.59262 19.5756 8.59362 19.4236 8.56162 19.2776C8.52862 19.1306 8.46362 18.9926 8.37162 18.8746C8.27862 18.7566 8.16062 18.6606 8.02562 18.5946C7.89162 18.5276 7.74362 18.4926 7.59362 18.4906C7.65062 18.3596 7.67862 18.2166 7.67662 18.0736C7.67462 17.9306 7.64062 17.7886 7.57962 17.6596C7.51762 17.5296 7.42862 17.4156 7.31862 17.3236C7.20962 17.2316 7.08062 17.1636 6.94262 17.1256C7.02962 17.0116 7.09162 16.8816 7.12462 16.7416C7.15762 16.6026 7.15962 16.4576 7.13162 16.3176C7.10462 16.1776 7.04662 16.0446 6.96362 15.9276C6.88062 15.8116 6.77362 15.7146 6.64962 15.6426C6.76762 15.5526 6.86362 15.4366 6.93162 15.3046C6.99962 15.1716 7.03762 15.0266 7.04162 14.8776C7.04662 14.7286 7.01862 14.5816 6.95962 14.4446C6.90062 14.3086 6.81162 14.1866 6.69962 14.0886C6.82962 14.0236 6.94362 13.9316 7.03462 13.8186C7.12562 13.7046 7.19162 13.5736 7.22762 13.4326C7.26262 13.2926 7.26662 13.1476 7.24062 13.0056C7.21362 12.8636 7.15662 12.7296 7.07362 12.6126C7.21262 12.5806 7.34262 12.5206 7.45562 12.4356C7.56962 12.3496 7.66362 12.2416 7.73162 12.1166C7.80062 11.9916 7.84162 11.8546 7.85262 11.7126C7.86362 11.5716 7.84462 11.4286 7.79662 11.2946C7.94562 11.3026 8.09462 11.2766 8.23162 11.2206C8.36962 11.1636 8.49262 11.0766 8.59262 10.9666C8.69262 10.8566 8.76662 10.7246 8.80962 10.5826C8.85262 10.4396 8.86362 10.2896 8.84162 10.1426C8.98262 10.1766 9.12862 10.1796 9.27062 10.1526C9.41162 10.1256 9.54662 10.0676 9.66362 9.98357C9.78162 9.89957 9.87962 9.79157 9.95162 9.66557C10.0236 9.54057 10.0676 9.40157 10.0816 9.25757C10.2076 9.32357 10.3476 9.36257 10.4906 9.37057C10.6336 9.37857 10.7766 9.35657 10.9096 9.30457C11.0436 9.25257 11.1636 9.17257 11.2646 9.07057C11.3646 8.96857 11.4416 8.84557 11.4906 8.71157C11.5946 8.80557 11.7166 8.87757 11.8496 8.92157C11.9826 8.96457 12.1236 8.97957 12.2636 8.96457C12.4156 8.95057 12.5626 8.90157 12.6926 8.82157C12.8226 8.74057 12.9316 8.63157 13.0126 8.50157C13.0956 8.62157 13.2046 8.72157 13.3296 8.79457C13.4556 8.86757 13.5966 8.91257 13.7416 8.92557C13.8866 8.93857 14.0326 8.92057 14.1696 8.87157C14.3066 8.82257 14.4316 8.74357 14.5346 8.64157C14.5896 8.77957 14.6746 8.90357 14.7836 9.00457C14.8926 9.10557 15.0226 9.18057 15.1646 9.22557C15.3056 9.27057 15.4556 9.28257 15.6026 9.26257C15.7496 9.24157 15.8906 9.18857 16.0146 9.10757C16.0416 9.25357 16.1016 9.39257 16.1886 9.51257C16.2766 9.63357 16.3896 9.73357 16.5196 9.80457C16.7386 9.92557 16.9956 9.95957 17.2386 9.90057C17.2656 9.93757 17.2936 9.97357 17.3246 10.0076C17.3376 10.2306 17.4266 10.4416 17.5756 10.6076C17.5816 10.6146 17.5886 10.6216 17.5966 10.6276C18.1086 11.1636 19.2976 12.4636 19.0736 14.2056C19.0176 14.6386 19.2606 14.8576 19.5716 14.5226C21.4586 12.4876 21.1626 9.98957 21.1206 9.69957C21.1106 9.51357 21.0696 9.33057 20.9986 9.15757C21.0206 9.05057 21.0316 8.94057 21.0326 8.83057C21.0316 8.58157 20.9736 8.33657 20.8636 8.11257C20.7526 7.88957 20.5916 7.69557 20.3926 7.54457C20.4116 7.44857 20.4216 7.35157 20.4216 7.25357C20.4216 6.94457 20.3296 6.64257 20.1566 6.38657C19.9846 6.13157 19.7396 5.93257 19.4536 5.81757C19.4466 5.46957 19.3176 5.13557 19.0886 4.87357C18.8606 4.61157 18.5466 4.43857 18.2036 4.38457C18.1436 4.06057 17.9726 3.76757 17.7196 3.55757C17.4666 3.34657 17.1486 3.23157 16.8196 3.23057C16.7936 3.23057 16.7706 3.23357 16.7436 3.23457C16.6566 2.96557 16.4876 2.73157 16.2596 2.56557C16.0306 2.40057 15.7566 2.31157 15.4746 2.31157C15.3616 2.31157 15.2486 2.32657 15.1396 2.35557C15.0696 2.20257 14.9696 2.06457 14.8446 1.94957C14.7206 1.83557 14.5746 1.74757 14.4156 1.69057C14.2566 1.63357 14.0886 1.60857 13.9196 1.61757C13.7516 1.62757 13.5866 1.67057 13.4346 1.74457C13.3486 1.59757 13.2316 1.46957 13.0916 1.37157C12.9516 1.27357 12.7926 1.20657 12.6246 1.17457C12.4566 1.14357 12.2846 1.14757 12.1186 1.18857C11.9526 1.22957 11.7976 1.30557 11.6636 1.41157C11.5626 1.27157 11.4316 1.15657 11.2796 1.07657C11.1276 0.996566 10.9586 0.952566 10.7866 0.947566C10.6146 0.943566 10.4436 0.979566 10.2876 1.05157C10.1326 1.12457 9.99562 1.23257 9.88762 1.36757C9.77762 1.23057 9.63362 1.12457 9.47062 1.05857C9.30762 0.993566 9.13062 0.970566 8.95662 0.993566C8.78162 1.01557 8.61662 1.08257 8.47462 1.18757C8.33362 1.29257 8.22162 1.43157 8.14962 1.59157C8.03062 1.45057 7.87262 1.34757 7.69562 1.29457C7.51862 1.24257 7.33062 1.24257 7.15362 1.29657C6.97662 1.35057 6.81962 1.45457 6.70162 1.59657C6.58362 1.73857 6.50962 1.91257 6.48962 2.09657C6.40062 1.98057 6.28462 1.88857 6.15062 1.82957C6.01662 1.77157 5.87062 1.74857 5.72462 1.76257C5.57962 1.77657 5.44062 1.82657 5.32062 1.90957C5.19962 1.99257 5.10262 2.10457 5.03862 2.23557C4.97362 2.36657 4.94362 2.51257 4.95062 2.65857C4.95762 2.80357 5.00162 2.94557 5.07862 3.06957C5.15562 3.19357 5.26362 3.29557 5.39162 3.36657C5.51862 3.43757 5.66262 3.47457 5.80862 3.47457L5.81062 3.47657Z" fill="white"/>
</svg>
